<svg width="24" height="24" viewBox="0 0 24 24" fill="none" xmlns="http://www.w3.org/2000/svg">
    <path fill-rule="evenodd" clip-rule="evenodd"
        d="M12 3.40909C7.25537 3.40909 3.40909 7.25537 3.40909 12C3.40909 16.7446 7.25537 20.5909 12 20.5909C16.7446 20.5909 20.5909 16.7446 20.5909 12C20.5909 7.25537 16.7446 3.40909 12 3.40909ZM1.5 12C1.5 6.20101 6.20101 1.5 12 1.5C17.799 1.5 22.5 6.20101 22.5 12C22.5 17.799 17.799 22.5 12 22.5C6.20101 22.5 1.5 17.799 1.5 12ZM12 7.22727C12.5272 7.22727 12.9545 7.65464 12.9545 8.18182V12C12.9545 12.5272 12.5272 12.9545 12 12.9545C11.4728 12.9545 11.0455 12.5272 11.0455 12V8.18182C11.0455 7.65464 11.4728 7.22727 12 7.22727ZM11.0455 15.8182C11.0455 15.291 11.4728 14.8636 12 14.8636H12.0095C12.5367 14.8636 12.9641 15.291 12.9641 15.8182C12.9641 16.3454 12.5367 16.7727 12.0095 16.7727H12C11.4728 16.7727 11.0455 16.3454 11.0455 15.8182Z"
        fill="currentColor" />
</svg>