<svg width="24" height="24" viewBox="0 0 24 24" fill="none" xmlns="http://www.w3.org/2000/svg">
    <path fill-rule="evenodd" clip-rule="evenodd"
        d="M6 22C5.45763 22 4.94048 21.8921 4.46885 21.6965C4.31406 21.6323 4.16417 21.5587 4.01991 21.4763C3.87407 21.3931 3.73397 21.3009 3.60036 21.2006C3.84623 20.7687 4.38098 20.5775 4.8519 20.7728C5.20424 20.9189 5.59138 21 6 21H7.5C8.05228 21 8.5 21.4477 8.5 22H6ZM14.5 22C14.5 21.4477 14.0523 21 13.5 21H10.5C9.94772 21 9.5 21.4477 9.5 22H14.5ZM20.3996 21.2006C20.1538 20.7687 19.619 20.5775 19.1481 20.7728C18.7958 20.9189 18.4086 21 18 21H16.5C15.9477 21 15.5 21.4477 15.5 22H18C18.5424 22 19.0595 21.8921 19.5312 21.6965C19.6859 21.6323 19.8358 21.5587 19.9801 21.4763C20.1259 21.3931 20.266 21.3009 20.3996 21.2006ZM22 15.5C21.4477 15.5 21 15.9477 21 16.5V18C21 18.4086 20.9189 18.7958 20.7728 19.1481C20.5775 19.619 20.7687 20.1538 21.2006 20.3996C21.3009 20.266 21.3931 20.1259 21.4763 19.9801C21.5587 19.8358 21.6323 19.6859 21.6965 19.5312C21.8921 19.0595 22 18.5424 22 18V15.5ZM22 9.5C21.4477 9.5 21 9.94772 21 10.5V13.5C21 14.0523 21.4477 14.5 22 14.5V9.5ZM21.2006 3.60036C20.7687 3.84623 20.5775 4.38098 20.7728 4.8519C20.9189 5.20424 21 5.59138 21 6V7.5C21 8.05228 21.4477 8.5 22 8.5V6C22 5.45763 21.8921 4.94048 21.6965 4.46885C21.6323 4.31406 21.5587 4.16417 21.4763 4.01991C21.3931 3.87407 21.3009 3.73397 21.2006 3.60036ZM15.5 2C15.5 2.55228 15.9477 3 16.5 3H18C18.4086 3 18.7958 3.08114 19.1481 3.22725C19.619 3.42253 20.1538 3.23129 20.3996 2.79944C20.266 2.69911 20.1259 2.60694 19.9801 2.52369C19.8358 2.44134 19.6859 2.36771 19.5312 2.30352C19.0595 2.10794 18.5424 2 18 2H15.5ZM9.5 2C9.5 2.55228 9.94772 3 10.5 3H13.5C14.0523 3 14.5 2.55228 14.5 2H9.5ZM8.5 2C8.5 2.55228 8.05228 3 7.5 3H6C5.59138 3 5.20424 3.08114 4.8519 3.22725C4.38098 3.42253 3.84623 3.23129 3.60036 2.79944C3.73397 2.6991 3.87407 2.60694 4.01991 2.52369C4.16418 2.44134 4.31406 2.36771 4.46885 2.30352C4.94048 2.10794 5.45763 2 6 2H8.5ZM2 8.5C2.55228 8.5 3 8.05228 3 7.5V6C3 5.59138 3.08114 5.20424 3.22725 4.8519C3.42253 4.38098 3.23129 3.84623 2.79944 3.60036C2.6991 3.73397 2.60694 3.87407 2.52369 4.01991C2.44134 4.16417 2.36771 4.31406 2.30352 4.46885C2.10794 4.94048 2 5.45763 2 6V8.5ZM2 14.5C2.55228 14.5 3 14.0523 3 13.5V10.5C3 9.94772 2.55228 9.5 2 9.5V14.5ZM2.79944 20.3996C3.23129 20.1538 3.42253 19.619 3.22725 19.1481C3.08114 18.7958 3 18.4086 3 18V16.5C3 15.9477 2.55228 15.5 2 15.5V18C2 18.5424 2.10794 19.0595 2.30352 19.5312C2.36771 19.6859 2.44134 19.8358 2.52369 19.9801C2.60694 20.1259 2.69911 20.266 2.79944 20.3996Z"
        fill="currentColor" />
</svg>