<svg width="24" height="24" viewBox="0 0 24 24" fill="none" xmlns="http://www.w3.org/2000/svg">
    <g clip-path="url(#clip0_5658_40807)">
        <path fill-rule="evenodd" clip-rule="evenodd"
            d="M3.32698 4.63803C3 5.27976 3 6.11984 3 7.8V16.2C3 17.8802 3 18.7202 3.32698 19.362C3.6146 19.9265 4.07354 20.3854 4.63803 20.673C5.27976 21 6.11984 21 7.8 21H16.2C17.8802 21 18.7202 21 19.362 20.673C19.9265 20.3854 20.3854 19.9265 20.673 19.362C21 18.7202 21 17.8802 21 16.2V7.8C21 6.11984 21 5.27976 20.673 4.63803C20.3854 4.07354 19.9265 3.6146 19.362 3.32698C18.7202 3 17.8802 3 16.2 3H7.8C6.11984 3 5.27976 3 4.63803 3.32698C4.07354 3.6146 3.6146 4.07354 3.32698 4.63803ZM17.2071 9.70711C17.5976 9.31658 17.5976 8.68342 17.2071 8.29289C16.8166 7.90237 16.1834 7.90237 15.7929 8.29289L10.5 13.5858L8.20711 11.2929C7.81658 10.9024 7.18342 10.9024 6.79289 11.2929C6.40237 11.6834 6.40237 12.3166 6.79289 12.7071L9.79289 15.7071C10.1834 16.0976 10.8166 16.0976 11.2071 15.7071L17.2071 9.70711Z"
            fill="currentColor" />
    </g>
    <defs>
        <clipPath id="clip0_5658_40807">
            <rect width="24" height="24" fill="currentColor" />
        </clipPath>
    </defs>
</svg>