<svg width="24" height="24" viewBox="0 0 24 24" fill="none" xmlns="http://www.w3.org/2000/svg">
    <path fill-rule="evenodd" clip-rule="evenodd"
        d="M8 1.00928C8.55229 1.00928 9 1.43664 9 1.96382V2.91837H15V1.96382C15 1.43664 15.4477 1.00928 16 1.00928C16.5523 1.00928 17 1.43664 17 1.96382V2.91992C17.4755 2.92304 17.891 2.93241 18.2518 2.96055C18.8139 3.00439 19.3306 3.09847 19.816 3.33453C20.5686 3.70059 21.1805 4.28469 21.564 5.00313C21.8113 5.46641 21.9099 5.95962 21.9558 6.49617C22 7.01276 22 7.64692 22 8.41529V16.5124C22 17.2807 22 17.9149 21.9558 18.4315C21.9099 18.968 21.8113 19.4612 21.564 19.9245C21.1805 20.643 20.5686 21.2271 19.816 21.5931C19.3306 21.8292 18.8139 21.9233 18.2518 21.9671C17.7106 22.0093 17.0463 22.0093 16.2413 22.0093H7.75868C6.95372 22.0093 6.28936 22.0093 5.74817 21.9671C5.18608 21.9233 4.66937 21.8292 4.18404 21.5931C3.43139 21.2271 2.81947 20.643 2.43597 19.9245C2.18868 19.4612 2.09012 18.968 2.04419 18.4315C1.99998 17.9149 1.99999 17.2807 2 16.5123V8.41531C1.99999 7.64693 1.99998 7.01277 2.04419 6.49617C2.09012 5.95962 2.18868 5.46641 2.43597 5.00313C2.81947 4.28469 3.43139 3.70059 4.18404 3.33453C4.66937 3.09847 5.18608 3.00439 5.74818 2.96055C6.10898 2.93241 6.52454 2.92304 7 2.91992V1.96382C7 1.43664 7.44772 1.00928 8 1.00928ZM7 4.82914C6.55447 4.83213 6.20463 4.84041 5.91104 4.8633C5.47262 4.8975 5.24842 4.95947 5.09202 5.03554C4.7157 5.21857 4.40973 5.51062 4.21799 5.86984C4.1383 6.01913 4.07337 6.23314 4.03755 6.65163C4.00078 7.08126 4 7.63709 4 8.45473V8.64564H20V8.45473C20 7.63709 19.9992 7.08126 19.9624 6.65163C19.9266 6.23314 19.8617 6.01913 19.782 5.86984C19.5903 5.51062 19.2843 5.21857 18.908 5.03554C18.7516 4.95947 18.5274 4.8975 18.089 4.8633C17.7954 4.84041 17.4455 4.83213 17 4.82914V5.782C17 6.30919 16.5523 6.73655 16 6.73655C15.4477 6.73655 15 6.30919 15 5.782V4.82746H9V5.782C9 6.30919 8.55229 6.73655 8 6.73655C7.44772 6.73655 7 6.30919 7 5.782V4.82914ZM20 10.5547H4V16.4729C4 17.2906 4.00078 17.8464 4.03755 18.276C4.07337 18.6945 4.1383 18.9085 4.21799 19.0578C4.40973 19.417 4.7157 19.7091 5.09202 19.8921C5.24842 19.9682 5.47262 20.0301 5.91104 20.0643C6.36113 20.0994 6.94342 20.1002 7.8 20.1002H16.2C17.0566 20.1002 17.6389 20.0994 18.089 20.0643C18.5274 20.0301 18.7516 19.9682 18.908 19.8921C19.2843 19.7091 19.5903 19.417 19.782 19.0578C19.8617 18.9085 19.9266 18.6945 19.9624 18.276C19.9992 17.8464 20 17.2906 20 16.4729V10.5547Z"
        fill="currentColor" />
</svg>