<svg width="25" height="24" viewBox="0 0 25 24" fill="none" xmlns="http://www.w3.org/2000/svg">
    <g clip-path="url(#clip0_5658_40817)">
        <path
            d="M4.44531 7.8C4.44531 6.94342 4.44609 6.36113 4.48286 5.91104C4.51868 5.47262 4.58361 5.24842 4.6633 5.09202C4.85505 4.71569 5.16101 4.40973 5.53733 4.21799C5.69373 4.1383 5.91793 4.07337 6.35635 4.03755C6.80644 4.00078 7.38873 4 8.24531 4H16.6453C17.5019 4 18.0842 4.00078 18.5343 4.03755C18.9727 4.07337 19.1969 4.1383 19.3533 4.21799C19.7296 4.40973 20.0356 4.7157 20.2273 5.09202C20.307 5.24842 20.3719 5.47262 20.4078 5.91104C20.4445 6.36113 20.4453 6.94342 20.4453 7.8V16.2C20.4453 17.0566 20.4445 17.6389 20.4078 18.089C20.3719 18.5274 20.307 18.7516 20.2273 18.908C20.0356 19.2843 19.7296 19.5903 19.3533 19.782C19.1969 19.8617 18.9727 19.9266 18.5343 19.9624C18.0842 19.9992 17.5019 20 16.6453 20H8.24531C7.38873 20 6.80644 19.9992 6.35635 19.9624C5.91794 19.9266 5.69373 19.8617 5.53733 19.782C5.16101 19.5903 4.85505 19.2843 4.6633 18.908C4.58361 18.7516 4.51868 18.5274 4.48286 18.089C4.44609 17.6389 4.44531 17.0566 4.44531 16.2V7.8Z"
            stroke="currentColor" stroke-width="2" stroke-linecap="round" stroke-linejoin="round" />
    </g>
    <defs>
        <clipPath id="clip0_5658_40817">
            <rect width="24" height="24" fill="currentColor" transform="translate(0.445312)" />
        </clipPath>
    </defs>
</svg>