<svg width="24" height="24" viewBox="0 0 24 24" fill="none" xmlns="http://www.w3.org/2000/svg">
    <path fill-rule="evenodd" clip-rule="evenodd"
        d="M8.18283 3H15.8172C16.5416 2.99999 17.1396 2.99998 17.6266 3.03978C18.1325 3.08111 18.5976 3.16982 19.0344 3.39238C19.7118 3.73752 20.2625 4.28825 20.6076 4.96563C20.8302 5.40244 20.9189 5.86747 20.9602 6.37336C21 6.86043 21 7.45836 21 8.18283V15.8172C21 16.5416 21 17.1396 20.9602 17.6266C20.9189 18.1325 20.8302 18.5976 20.6076 19.0344C20.2625 19.7118 19.7118 20.2625 19.0344 20.6076C18.5976 20.8302 18.1325 20.9189 17.6266 20.9602C17.1396 21 16.5416 21 15.8172 21H8.18283C7.45836 21 6.86043 21 6.37336 20.9602C5.86747 20.9189 5.40244 20.8302 4.96563 20.6076C4.28825 20.2625 3.73752 19.7118 3.39238 19.0344C3.16982 18.5976 3.08111 18.1325 3.03978 17.6266C2.99998 17.1396 2.99999 16.5416 3 15.8172V8.18283C2.99999 7.45836 2.99998 6.86043 3.03978 6.37336C3.08111 5.86747 3.16982 5.40244 3.39238 4.96564C3.73752 4.28825 4.28825 3.73752 4.96564 3.39238C5.40244 3.16982 5.86747 3.08111 6.37336 3.03978C6.86043 2.99998 7.45836 2.99999 8.18283 3ZM12.9 19.2H15.78C16.5509 19.2 17.075 19.1993 17.4801 19.1662C17.8746 19.134 18.0764 19.0755 18.2172 19.0038C18.5559 18.8312 18.8312 18.5559 19.0038 18.2172C19.0755 18.0764 19.134 17.8746 19.1662 17.4801C19.1993 17.075 19.2 16.5509 19.2 15.78V12.9L12.9 12.9V19.2ZM11.1 12.0009L11.1 19.2H8.22C7.44908 19.2 6.92502 19.1993 6.51993 19.1662C6.12536 19.134 5.92358 19.0755 5.78282 19.0038C5.44413 18.8312 5.16876 18.5559 4.99619 18.2172C4.92447 18.0764 4.86603 17.8746 4.8338 17.4801C4.8007 17.075 4.8 16.5509 4.8 15.78V8.22C4.8 7.44908 4.8007 6.92502 4.8338 6.51993C4.86603 6.12536 4.92447 5.92358 4.99619 5.78282C5.16876 5.44413 5.44413 5.16876 5.78282 4.99619C5.92358 4.92447 6.12536 4.86603 6.51993 4.8338C6.92502 4.8007 7.44908 4.8 8.22 4.8H11.1V11.9991C11.1 11.9988 11.1 11.9994 11.1 11.9991C11.1 11.9994 11.1 12.0006 11.1 12.0009ZM12.9 11.1L19.2 11.1V8.22C19.2 7.44908 19.1993 6.92502 19.1662 6.51993C19.134 6.12536 19.0755 5.92358 19.0038 5.78282C18.8312 5.44413 18.5559 5.16876 18.2172 4.99619C18.0764 4.92447 17.8746 4.86603 17.4801 4.8338C17.075 4.8007 16.5509 4.8 15.78 4.8H12.9V11.1Z"
        fill="currentColor" />
</svg>