<svg width="24" height="24" viewBox="0 0 24 24" fill="none" xmlns="http://www.w3.org/2000/svg">
    <path fill-rule="evenodd" clip-rule="evenodd"
        d="M11 5.5C11 4.94772 11.4477 4.5 12 4.5H16.5C19.5376 4.5 22 6.96243 22 10C22 13.0376 19.5376 15.5 16.5 15.5H5.41421L7.70711 17.7929C8.09763 18.1834 8.09763 18.8166 7.70711 19.2071C7.31658 19.5976 6.68342 19.5976 6.29289 19.2071L2.29289 15.2071C1.90237 14.8166 1.90237 14.1834 2.29289 13.7929L6.29289 9.79289C6.68342 9.40237 7.31658 9.40237 7.70711 9.79289C8.09763 10.1834 8.09763 10.8166 7.70711 11.2071L5.41421 13.5H16.5C18.433 13.5 20 11.933 20 10C20 8.067 18.433 6.5 16.5 6.5H12C11.4477 6.5 11 6.05228 11 5.5Z"
        fill="currentColor" />
</svg>