<svg width="24" height="24" viewBox="0 0 24 24" fill="none" xmlns="http://www.w3.org/2000/svg">
    <path fill-rule="evenodd" clip-rule="evenodd"
        d="M16.1289 2.45726C17.624 0.962163 20.048 0.962165 21.5431 2.45726C23.0382 3.95235 23.0382 6.37638 21.5431 7.87147L18.5457 10.8688C18.5448 10.8697 18.544 10.8706 18.5431 10.8715C18.5422 10.8723 18.5413 10.8732 18.5404 10.8741L8.33678 21.0777C8.32001 21.0945 8.3034 21.1111 8.28692 21.1277C8.04203 21.3729 7.82601 21.5893 7.56934 21.7586C7.34368 21.9074 7.09894 22.025 6.84178 22.1082C6.54927 22.2029 6.24536 22.2365 5.90082 22.2745C5.87765 22.277 5.85429 22.2796 5.83074 22.2822L2.44638 22.6582C2.14445 22.6918 1.84364 22.5863 1.62884 22.3715C1.41403 22.1567 1.30851 21.8559 1.34206 21.5539L1.7181 18.1696C1.72072 18.146 1.7233 18.1226 1.72585 18.0995C1.76386 17.7549 1.79738 17.451 1.89207 17.1585C1.97532 16.9014 2.09295 16.6566 2.24175 16.431C2.41101 16.1743 2.62738 15.9583 2.87267 15.7134C2.88917 15.6969 2.90581 15.6803 2.92257 15.6635L16.1289 2.45726ZM13.836 7.57858L4.33678 17.0777C4.01427 17.4003 3.9544 17.4668 3.91141 17.532C3.86181 17.6072 3.8226 17.6888 3.79485 17.7745C3.77079 17.8488 3.75624 17.9371 3.70587 18.3904L3.46787 20.5324L5.60988 20.2944C6.06318 20.2441 6.1515 20.2295 6.2258 20.2055C6.31152 20.1777 6.3931 20.1385 6.46832 20.0889C6.53352 20.0459 6.60006 19.986 6.92256 19.6635L16.4218 10.1644L13.836 7.57858ZM17.836 8.75015L15.2502 6.16436L17.5431 3.87147C18.2571 3.15743 19.4148 3.15743 20.1289 3.87147C20.8429 4.58552 20.8429 5.74321 20.1289 6.45726L17.836 8.75015Z"
        fill="currentColor" />
</svg>