<svg width="24" height="24" viewBox="0 0 24 24" fill="none" xmlns="http://www.w3.org/2000/svg">
    <path fill-rule="evenodd" clip-rule="evenodd"
        d="M12 20.5C16.6944 20.5 20.5 16.6944 20.5 12C20.5 7.30558 16.6944 3.5 12 3.5C7.30558 3.5 3.5 7.30558 3.5 12C3.5 16.6944 7.30558 20.5 12 20.5ZM12 22.5C17.799 22.5 22.5 17.799 22.5 12C22.5 6.20101 17.799 1.5 12 1.5C6.20101 1.5 1.5 6.20101 1.5 12C1.5 17.799 6.20101 22.5 12 22.5Z"
        fill="currentColor" />
    <path fill-rule="evenodd" clip-rule="evenodd"
        d="M12.1839 8.73717C11.8394 8.67625 11.4837 8.7424 11.1783 8.92746C10.8723 9.11294 10.634 9.4079 10.5121 9.76501C10.3606 10.2093 9.87752 10.4466 9.43322 10.2951C8.98892 10.1435 8.75161 9.66044 8.90318 9.21614C9.15111 8.48935 9.64262 7.87033 10.2972 7.47362C10.9525 7.0765 11.7262 6.92983 12.48 7.06316C13.2334 7.19642 13.9112 7.59943 14.3963 8.19366C14.8808 8.78716 15.1431 9.53415 15.1422 10.302C15.142 11.2389 14.6019 11.9328 14.0842 12.384C13.5727 12.8296 12.9766 13.1352 12.5692 13.3147V13.8176C12.5692 14.2871 12.1886 14.6676 11.7192 14.6676C11.2498 14.6676 10.8692 14.2871 10.8692 13.8176V13.2511C10.8692 12.5662 11.3066 12.0105 11.8613 11.7688C12.1984 11.622 12.6316 11.3948 12.9674 11.1022C13.309 10.8045 13.4422 10.5376 13.4422 10.3015L13.4422 10.3002C13.4427 9.91936 13.3123 9.55407 13.0794 9.26871C12.8469 8.98392 12.5286 8.79816 12.1839 8.73717ZM15.1422 10.302C15.1422 10.3023 15.1422 10.3025 15.1422 10.3027L14.2922 10.3015H15.1422C15.1422 10.3017 15.1422 10.3019 15.1422 10.302ZM11.7726 15.2531C12.242 15.2531 12.6226 15.6337 12.6226 16.1031V16.1348C12.6226 16.6043 12.242 16.9848 11.7726 16.9848C11.3032 16.9848 10.9226 16.6043 10.9226 16.1348V16.1031C10.9226 15.6337 11.3032 15.2531 11.7726 15.2531Z"
        fill="currentColor" />
</svg>