<svg width="24" height="24" viewBox="0 0 24 24" fill="none" xmlns="http://www.w3.org/2000/svg">
    <path fill-rule="evenodd" clip-rule="evenodd"
        d="M15.33 4.5265C13.7184 3.80841 11.9178 3.63052 10.1969 4.01935C8.47592 4.40818 6.92674 5.3429 5.78041 6.68411C4.63408 8.02531 3.95201 9.70114 3.83592 11.4617C3.71983 13.2222 4.17595 14.9731 5.13624 16.4532C6.09654 17.9333 7.50956 19.0634 9.16457 19.6748C10.8196 20.2862 12.6279 20.3463 14.3198 19.8461C16.0118 19.3458 17.4967 18.312 18.5531 16.8989C19.6095 15.4858 20.1808 13.769 20.1818 12.0047V11.1688C20.1818 10.6668 20.5888 10.2597 21.0909 10.2597C21.593 10.2597 22 10.6668 22 11.1688V12.0052C21.9988 14.1616 21.3005 16.2604 20.0093 17.9875C18.7182 19.7147 16.9033 20.9782 14.8354 21.5896C12.7674 22.201 10.5573 22.1276 8.53447 21.3803C6.51168 20.633 4.78465 19.2518 3.61096 17.4428C2.43727 15.6338 1.87979 13.4938 2.02168 11.342C2.16356 9.19029 2.99721 7.14205 4.39828 5.5028C5.79935 3.86354 7.69278 2.72111 9.79619 2.24587C11.8996 1.77063 14.1003 1.98806 16.07 2.86572C16.5286 3.07007 16.7347 3.6075 16.5304 4.06611C16.326 4.52472 15.7886 4.73085 15.33 4.5265ZM21.7334 4.08413C22.0886 4.43897 22.0889 5.01458 21.7341 5.36978L12.6431 14.4698C12.4727 14.6404 12.2414 14.7363 12.0002 14.7364C11.759 14.7364 11.5277 14.6406 11.3572 14.4701L8.6299 11.7428C8.27488 11.3878 8.27488 10.8122 8.6299 10.4572C8.98492 10.1022 9.56053 10.1022 9.91555 10.4572L11.9997 12.5413L20.4478 4.08477C20.8026 3.72957 21.3782 3.72928 21.7334 4.08413Z"
        fill="currentColor" />
</svg>