<svg width="24" height="24" viewBox="0 0 24 24" fill="none" xmlns="http://www.w3.org/2000/svg">
    <path fill-rule="evenodd" clip-rule="evenodd"
        d="M12.4498 4.8C10.4604 4.8 8.66094 5.60563 7.35687 6.9106C6.67492 7.59302 5.90052 8.51815 5.27751 9.3H8.8498C9.34686 9.3 9.7498 9.70294 9.7498 10.2C9.7498 10.6971 9.34686 11.1 8.8498 11.1H3.4498C2.95275 11.1 2.5498 10.6971 2.5498 10.2V4.8C2.5498 4.30294 2.95275 3.9 3.4498 3.9C3.94686 3.9 4.3498 4.30294 4.3498 4.8V7.585C4.8915 6.92623 5.50797 6.21431 6.08364 5.63824C7.71151 4.00926 9.96365 3 12.4498 3C17.4204 3 21.4498 7.02944 21.4498 12C21.4498 16.9706 17.4204 21 12.4498 21C8.3454 21 4.88487 18.2533 3.80168 14.4995C3.66387 14.022 3.9393 13.5231 4.41687 13.3853C4.89444 13.2475 5.3933 13.5229 5.53111 14.0005C6.39794 17.0044 9.16864 19.2 12.4498 19.2C16.4263 19.2 19.6498 15.9764 19.6498 12C19.6498 8.02355 16.4263 4.8 12.4498 4.8Z"
        fill="currentColor" />
</svg>