<svg width="24" height="24" viewBox="0 0 24 24" fill="none" xmlns="http://www.w3.org/2000/svg">
    <path fill-rule="evenodd" clip-rule="evenodd"
        d="M12 14.0952C13.1572 14.0952 14.0952 13.1572 14.0952 12C14.0952 10.8428 13.1572 9.90476 12 9.90476C10.8428 9.90476 9.90476 10.8428 9.90476 12C9.90476 13.1572 10.8428 14.0952 12 14.0952ZM12 16.1905C14.3143 16.1905 16.1905 14.3143 16.1905 12C16.1905 9.68566 14.3143 7.80952 12 7.80952C9.68566 7.80952 7.80952 9.68566 7.80952 12C7.80952 14.3143 9.68566 16.1905 12 16.1905Z"
        fill="currentColor" />
    <path fill-rule="evenodd" clip-rule="evenodd"
        d="M14.708 2.43977C14.5285 1.61647 13.7953 1 12.9182 1H11.0818C10.2045 1 9.4713 1.61667 9.29195 2.44017C9.28914 2.45311 9.28646 2.4661 9.28391 2.47914C9.26166 2.59325 9.25 2.71115 9.25 2.83177V3.65778C9.25 3.93908 9.07051 4.1878 8.81111 4.29661C8.54965 4.40629 8.24599 4.35732 8.0455 4.15683L7.45837 3.5697C7.37395 3.48528 7.28331 3.41084 7.18794 3.3464C7.17694 3.33897 7.16588 3.33167 7.15476 3.32451C6.44745 2.86881 5.49437 2.95054 4.87521 3.5697L3.59815 4.84677C2.97169 5.47323 2.88338 6.43404 3.33321 7.15476C3.34287 7.17024 3.35278 7.18561 3.36294 7.20086C3.43039 7.30215 3.5088 7.3983 3.59815 7.48765L4.20867 8.09817C4.39808 8.28758 4.44676 8.57344 4.34651 8.82184C4.24453 9.07451 4.00421 9.25 3.73173 9.25H2.85731C2.73451 9.25 2.61449 9.26192 2.49835 9.28466C2.48001 9.28825 2.46176 9.29211 2.44362 9.29624C1.61698 9.48427 1 10.2237 1 11.1073V12.8347C1 13.7333 1.6189 14.4874 2.45372 14.694C2.47949 14.7004 2.50545 14.7062 2.53162 14.7116C2.65559 14.7368 2.78392 14.75 2.91534 14.75H3.83497C4.08589 14.75 4.30852 14.9083 4.40688 15.1391C4.50706 15.3742 4.46273 15.6481 4.28204 15.8288L3.62327 16.4876C3.53294 16.5779 3.45359 16.6751 3.38521 16.7774C3.37026 16.7998 3.35583 16.8224 3.34192 16.8452C2.89641 17.5776 2.99019 18.5458 3.62327 19.1788L4.79198 20.3476C5.43264 20.9882 6.40918 21.0883 7.15476 20.6478C7.18311 20.631 7.21113 20.6135 7.23878 20.5952C7.34574 20.5243 7.44724 20.4418 7.54146 20.3476L8.22237 19.6667C8.39242 19.4966 8.64926 19.4527 8.87178 19.544C9.09579 19.6358 9.25 19.8502 9.25 20.0923V21.0601C9.25 21.1917 9.2631 21.3202 9.28806 21.4444C9.29465 21.4772 9.30206 21.5097 9.31028 21.5418C9.5245 22.3802 10.2848 23 11.1899 23H12.8101C13.7151 23 14.4753 22.3804 14.6896 21.5422C14.6979 21.51 14.7053 21.4775 14.7119 21.4446C14.7369 21.3203 14.75 21.1918 14.75 21.0601V20.0921C14.75 19.8501 14.9041 19.6359 15.1281 19.544C15.3505 19.4528 15.6072 19.4967 15.7772 19.6667L16.4586 20.3481C16.5528 20.4423 16.6542 20.5248 16.761 20.5956C16.7887 20.6139 16.8168 20.6315 16.8452 20.6483C17.5912 21.0893 18.5684 20.9892 19.2095 20.3481L20.377 19.1806C21.0106 18.547 21.1042 17.578 20.6579 16.8452C20.644 16.8224 20.6296 16.7998 20.6146 16.7775C20.5463 16.6754 20.4671 16.5785 20.377 16.4883L19.7179 15.8293C19.5372 15.6485 19.4928 15.3745 19.5931 15.1393C19.6915 14.9084 19.9142 14.75 20.1652 14.75H21.0847C21.216 14.75 21.3442 14.7368 21.4681 14.7116C21.4942 14.7063 21.5202 14.7005 21.5459 14.6941C22.3809 14.4877 23 13.7335 23 12.8347V11.1073C23 10.2236 22.3828 9.48404 21.556 9.29615C21.5379 9.29204 21.5197 9.28819 21.5014 9.28461C21.3853 9.2619 21.2654 9.25 21.1427 9.25H20.2684C19.9959 9.25 19.7554 9.07444 19.6534 8.82168C19.5531 8.57318 19.6018 8.28719 19.7913 8.0977L20.4021 7.4869C20.4913 7.39775 20.5695 7.30182 20.6369 7.20078C20.647 7.18555 20.6569 7.17021 20.6666 7.15476C21.1172 6.43366 21.0291 5.47194 20.4021 4.84498L19.1262 3.56911C18.5067 2.94955 17.5529 2.86783 16.8452 3.32396C16.8341 3.33115 16.823 3.33848 16.8119 3.34595C16.7166 3.41036 16.6261 3.48475 16.5417 3.56911L15.954 4.15681C15.7536 4.35721 15.4501 4.40618 15.1887 4.29655C14.9294 4.18778 14.75 3.93915 14.75 3.65794V2.83177C14.75 2.71105 14.7383 2.59305 14.716 2.47885C14.7135 2.46577 14.7108 2.45274 14.708 2.43977ZM11.3452 3.09524V3.65778C11.3452 4.85476 10.591 5.82208 9.62159 6.22875C8.63648 6.64198 7.41152 6.48596 6.56394 5.63839L6.16679 5.24124L5.24082 6.16721L5.69023 6.61662C6.51649 7.44288 6.68115 8.6355 6.28948 9.60599C5.89477 10.584 4.9286 11.3452 3.73173 11.3452H3.09524V12.6548H3.83497C4.98936 12.6548 5.9326 13.3748 6.33442 14.3178C6.74641 15.2846 6.59015 16.4838 5.76359 17.3104L5.24075 17.8332L6.16672 18.7592L6.74081 18.1851C7.54659 17.3793 8.71413 17.2148 9.66675 17.6054C10.6183 17.9956 11.3452 18.938 11.3452 20.0923V20.9048H12.6548V20.0921C12.6548 18.9379 13.3816 17.9956 14.3331 17.6055C15.2857 17.2149 16.4531 17.3794 17.2587 18.1851L17.8341 18.7604L18.76 17.8345L18.2364 17.3108C17.4097 16.4842 17.2535 15.2848 17.6655 14.3179C18.0674 13.3749 19.0107 12.6548 20.1652 12.6548H20.9048V11.3452H20.2684C19.0715 11.3452 18.1052 10.5839 17.7105 9.60587C17.3187 8.6353 17.4834 7.44252 18.3098 6.61615L18.76 6.16594L17.834 5.23997L17.4356 5.63836C16.5881 6.48582 15.3633 6.64187 14.3783 6.2287C13.4089 5.82208 12.6548 4.85482 12.6548 3.65794V3.09524H11.3452Z"
        fill="currentColor" />
</svg>