<svg width="24" height="24" viewBox="0 0 24 24" fill="none" xmlns="http://www.w3.org/2000/svg">
    <path fill-rule="evenodd" clip-rule="evenodd"
        d="M5.84492 2.1001H12.7543C13.2287 2.10008 13.638 2.10007 13.9751 2.12761C14.3309 2.15668 14.6848 2.22087 15.0254 2.39438C15.5334 2.65324 15.9465 3.06629 16.2053 3.57432C16.3788 3.91487 16.443 4.26876 16.4721 4.62457C16.4996 4.96169 16.4996 5.37097 16.4996 5.84541V7.5001L18.1543 7.5001C18.6287 7.50008 19.038 7.50007 19.3751 7.52761C19.7309 7.55668 20.0848 7.62087 20.4254 7.79438C20.9334 8.05324 21.3465 8.46629 21.6053 8.97432C21.7788 9.31487 21.843 9.66876 21.8721 10.0246C21.8996 10.3617 21.8996 10.771 21.8996 11.2454V18.1548C21.8996 18.6292 21.8996 19.0385 21.8721 19.3756C21.843 19.7314 21.7788 20.0853 21.6053 20.4259C21.3465 20.9339 20.9334 21.347 20.4254 21.6058C20.0848 21.7793 19.7309 21.8435 19.3751 21.8726C19.038 21.9001 18.6287 21.9001 18.1543 21.9001H11.2449C10.7705 21.9001 10.3612 21.9001 10.0241 21.8726C9.66827 21.8435 9.31438 21.7793 8.97384 21.6058C8.4658 21.347 8.05275 20.9339 7.79389 20.4259C7.62038 20.0853 7.55619 19.7314 7.52712 19.3756C7.49958 19.0385 7.49959 18.6292 7.49961 18.1548L7.49961 16.5001H5.84492C5.37049 16.5001 4.9612 16.5001 4.62409 16.4726C4.26828 16.4435 3.91438 16.3793 3.57384 16.2058C3.0658 15.947 2.65275 15.5339 2.39389 15.0259C2.22038 14.6853 2.15619 14.3314 2.12712 13.9756C2.09958 13.6385 2.09959 13.2292 2.09961 12.7548V5.84541C2.09959 5.37098 2.09958 4.96169 2.12712 4.62457C2.15619 4.26876 2.22038 3.91487 2.39389 3.57432C2.65275 3.06629 3.0658 2.65324 3.57384 2.39438C3.91438 2.22087 4.26828 2.15668 4.62409 2.12761C4.9612 2.10007 5.37049 2.10008 5.84492 2.1001ZM9.29961 18.1201C9.29961 18.639 9.30031 18.974 9.32115 19.229C9.34112 19.4735 9.37503 19.5642 9.3977 19.6087C9.48399 19.778 9.62167 19.9157 9.79102 20.002C9.83552 20.0247 9.92617 20.0586 10.1707 20.0786C10.4257 20.0994 10.7607 20.1001 11.2796 20.1001H18.1196C18.6385 20.1001 18.9736 20.0994 19.2286 20.0786C19.4731 20.0586 19.5637 20.0247 19.6082 20.002C19.7775 19.9157 19.9152 19.778 20.0015 19.6087C20.0242 19.5642 20.0581 19.4735 20.0781 19.229C20.0989 18.974 20.0996 18.639 20.0996 18.1201V11.2801C20.0996 10.7612 20.0989 10.4262 20.0781 10.1712C20.0581 9.92665 20.0242 9.83601 20.0015 9.79151C19.9152 9.62216 19.7775 9.48448 19.6082 9.39819C19.5637 9.37552 19.4731 9.34161 19.2286 9.32163C18.9736 9.3008 18.6385 9.3001 18.1196 9.3001H11.2796C10.7607 9.3001 10.4257 9.3008 10.1707 9.32163C9.92617 9.34161 9.83552 9.37552 9.79102 9.39819C9.62167 9.48448 9.48399 9.62216 9.3977 9.79151C9.37503 9.83601 9.34112 9.92665 9.32115 10.1712C9.30031 10.4262 9.29961 10.7612 9.29961 11.2801V18.1201ZM14.6996 7.5001L11.2449 7.5001C10.7705 7.50008 10.3612 7.50007 10.0241 7.52761C9.66827 7.55668 9.31438 7.62087 8.97384 7.79438C8.4658 8.05324 8.05275 8.46629 7.79389 8.97432C7.62038 9.31487 7.55619 9.66876 7.52712 10.0246C7.49958 10.3617 7.49959 10.771 7.49961 11.2454L7.49961 14.7001H5.87961C5.36071 14.7001 5.02567 14.6994 4.77066 14.6786C4.52617 14.6586 4.43552 14.6247 4.39102 14.602C4.22167 14.5157 4.08399 14.378 3.99771 14.2087C3.97503 14.1642 3.94112 14.0735 3.92115 13.829C3.90031 13.574 3.89961 13.239 3.89961 12.7201V5.8801C3.89961 5.3612 3.90031 5.02615 3.92115 4.77115C3.94112 4.52665 3.97503 4.43601 3.99771 4.39151C4.08399 4.22216 4.22167 4.08448 4.39102 3.99819C4.43552 3.97552 4.52617 3.94161 4.77066 3.92163C5.02567 3.9008 5.36071 3.9001 5.87961 3.9001H12.7196C13.2385 3.9001 13.5736 3.9008 13.8286 3.92163C14.0731 3.94161 14.1637 3.97552 14.2082 3.99819C14.3775 4.08448 14.5152 4.22216 14.6015 4.39151C14.6242 4.43601 14.6581 4.52665 14.6781 4.77115C14.6989 5.02615 14.6996 5.3612 14.6996 5.8801V7.5001ZM18.486 11.8137C18.8375 12.1652 18.8375 12.735 18.486 13.0865L14.436 17.1365C14.0845 17.488 13.5147 17.488 13.1632 17.1365L11.3632 15.3365C11.0117 14.985 11.0117 14.4152 11.3632 14.0637C11.7147 13.7122 12.2845 13.7122 12.636 14.0637L13.7996 15.2273L17.2132 11.8137C17.5647 11.4622 18.1345 11.4622 18.486 11.8137Z"
        fill="currentColor" />
</svg>